<svg width="22" height="19" viewBox="0 0 22 19" fill="none" xmlns="http://www.w3.org/2000/svg">
<path d="M14.775 9.975L13.65 8.85C13.8 8.01667 13.5627 7.271 12.938 6.613C12.3127 5.95433 11.55 5.7 10.65 5.85L9.52501 4.725C9.75835 4.625 9.99168 4.55 10.225 4.5C10.4583 4.45 10.7167 4.425 11 4.425C12.1333 4.425 13.0957 4.821 13.887 5.613C14.679 6.40433 15.075 7.36667 15.075 8.5C15.075 8.78333 15.05 9.04567 15 9.287C14.95 9.529 14.875 9.75833 14.775 9.975ZM17.95 13.075L16.85 12.05C17.4833 11.5667 18.046 11.0373 18.538 10.462C19.0293 9.88733 19.45 9.23333 19.8 8.5C18.9667 6.81667 17.7707 5.479 16.212 4.487C14.654 3.49567 12.9167 3 11 3C10.5167 3 10.0417 3.03333 9.57501 3.1C9.10835 3.16667 8.65001 3.26667 8.20001 3.4L7.02501 2.225C7.65835 1.975 8.30435 1.79167 8.96301 1.675C9.62101 1.55833 10.3 1.5 11 1.5C13.2167 1.5 15.2373 2.08733 17.062 3.262C18.8873 4.43733 20.2667 5.98333 21.2 7.9C21.2333 7.96667 21.2583 8.054 21.275 8.162C21.2917 8.27067 21.3 8.38333 21.3 8.5C21.3 8.61667 21.2917 8.729 21.275 8.837C21.2583 8.94567 21.2333 9.03333 21.2 9.1C20.8167 9.88333 20.354 10.6083 19.812 11.275C19.2707 11.9417 18.65 12.5417 17.95 13.075ZM18.225 18.35L14.725 14.85C14.2083 15.05 13.6377 15.2083 13.013 15.325C12.3877 15.4417 11.7167 15.5 11 15.5C8.76668 15.5 6.74168 14.9127 4.92501 13.738C3.10835 12.5627 1.73335 11.0167 0.800012 9.1C0.766679 9.03333 0.741679 8.94567 0.725012 8.837C0.708346 8.729 0.700012 8.61667 0.700012 8.5C0.700012 8.38333 0.708346 8.275 0.725012 8.175C0.741679 8.075 0.766679 7.98333 0.800012 7.9C1.18335 7.13333 1.64168 6.425 2.17501 5.775C2.70835 5.125 3.28335 4.55 3.90001 4.05L1.65001 1.775C1.50001 1.625 1.42501 1.45 1.42501 1.25C1.42501 1.05 1.50001 0.866667 1.65001 0.7C1.80001 0.566667 1.97935 0.5 2.18801 0.5C2.39601 0.5 2.56668 0.566667 2.70001 0.7L19.3 17.3C19.4333 17.4333 19.5043 17.6 19.513 17.8C19.521 18 19.45 18.1833 19.3 18.35C19.15 18.4833 18.971 18.55 18.763 18.55C18.5543 18.55 18.375 18.4833 18.225 18.35ZM4.95001 5.1C4.41668 5.51667 3.90435 6.021 3.41301 6.613C2.92101 7.20433 2.51668 7.83333 2.20001 8.5C3.03335 10.1833 4.22901 11.5207 5.78701 12.512C7.34568 13.504 9.08335 14 11 14C11.45 14 11.9 13.9623 12.35 13.887C12.8 13.8123 13.1833 13.7333 13.5 13.65L12.25 12.35C12.0667 12.4167 11.8667 12.4707 11.65 12.512C11.4333 12.554 11.2167 12.575 11 12.575C9.86668 12.575 8.90435 12.179 8.11301 11.387C7.32101 10.5957 6.92501 9.63333 6.92501 8.5C6.92501 8.3 6.94601 8.08733 6.98801 7.862C7.02935 7.63733 7.08335 7.43333 7.15001 7.25L4.95001 5.1Z" fill="#E2E2E2"/>
</svg>
