<svg width="28" height="28" viewBox="0 0 28 28" fill="none" xmlns="http://www.w3.org/2000/svg">
<path d="M13.9998 20.6665C14.3776 20.6665 14.6945 20.5385 14.9505 20.2825C15.2056 20.0274 15.3332 19.7109 15.3332 19.3332V15.3332H19.3665C19.7443 15.3332 20.0554 15.2052 20.2998 14.9492C20.5443 14.6941 20.6665 14.3776 20.6665 13.9998C20.6665 13.6221 20.5385 13.3052 20.2825 13.0492C20.0274 12.7941 19.7109 12.6665 19.3332 12.6665H15.3332V8.63317C15.3332 8.25539 15.2056 7.94428 14.9505 7.69984C14.6945 7.45539 14.3776 7.33317 13.9998 7.33317C13.6221 7.33317 13.3056 7.46073 13.0505 7.71584C12.7945 7.97184 12.6665 8.28873 12.6665 8.6665V12.6665H8.63317C8.25539 12.6665 7.94428 12.7941 7.69984 13.0492C7.45539 13.3052 7.33317 13.6221 7.33317 13.9998C7.33317 14.3776 7.46073 14.6941 7.71584 14.9492C7.97184 15.2052 8.28873 15.3332 8.6665 15.3332H12.6665V19.3665C12.6665 19.7443 12.7945 20.0554 13.0505 20.2998C13.3056 20.5443 13.6221 20.6665 13.9998 20.6665ZM13.9998 27.3332C12.1554 27.3332 10.4221 26.9829 8.79984 26.2825C7.17762 25.5829 5.7665 24.6332 4.5665 23.4332C3.3665 22.2332 2.41673 20.8221 1.71717 19.1998C1.01673 17.5776 0.666504 15.8443 0.666504 13.9998C0.666504 12.1554 1.01673 10.4221 1.71717 8.79984C2.41673 7.17762 3.3665 5.7665 4.5665 4.5665C5.7665 3.3665 7.17762 2.41628 8.79984 1.71584C10.4221 1.01628 12.1554 0.666504 13.9998 0.666504C15.8443 0.666504 17.5776 1.01628 19.1998 1.71584C20.8221 2.41628 22.2332 3.3665 23.4332 4.5665C24.6332 5.7665 25.5829 7.17762 26.2825 8.79984C26.9829 10.4221 27.3332 12.1554 27.3332 13.9998C27.3332 15.8443 26.9829 17.5776 26.2825 19.1998C25.5829 20.8221 24.6332 22.2332 23.4332 23.4332C22.2332 24.6332 20.8221 25.5829 19.1998 26.2825C17.5776 26.9829 15.8443 27.3332 13.9998 27.3332Z" fill="#763DD3"/>
</svg>
