<svg width="22" height="20" viewBox="0 0 22 20" fill="none" xmlns="http://www.w3.org/2000/svg">
<path d="M10.5173 20C9.05655 20 7.68346 19.7407 6.39802 19.2222C5.11257 18.7037 3.99774 17.9956 3.05352 17.0978C2.10852 16.1993 1.36335 15.1389 0.818011 13.9167C0.272671 12.6944 0 11.3889 0 10C0 8.59259 0.272671 7.28222 0.818011 6.06889C1.36335 4.8563 2.10852 3.80074 3.05352 2.90222C3.99774 2.00444 5.11257 1.2963 6.39802 0.777778C7.68346 0.259259 9.05655 0 10.5173 0C11.9975 0 13.3757 0.259259 14.6518 0.777778C15.9271 1.2963 17.0372 2.00444 17.9822 2.90222C18.9264 3.80074 19.6712 4.8563 20.2166 6.06889C20.7619 7.28222 21.0346 8.59259 21.0346 10V11.1111C21.0346 12.037 20.6988 12.8241 20.0273 13.4722C19.3549 14.1204 18.5221 14.4444 17.5288 14.4444C16.7498 14.4444 16.0922 14.2637 15.5562 13.9022C15.021 13.5415 14.6171 13.0556 14.3444 12.4444C13.9159 13.037 13.4095 13.5185 12.8253 13.8889C12.241 14.2593 11.4716 14.4444 10.5173 14.4444C9.21237 14.4444 8.10727 14.0137 7.20201 13.1522C6.29596 12.2915 5.84294 11.2407 5.84294 10C5.84294 8.75926 6.29596 7.70815 7.20201 6.84667C8.10727 5.98593 9.21237 5.55556 10.5173 5.55556C11.8222 5.55556 12.9277 5.98593 13.8337 6.84667C14.739 7.70815 15.1916 8.75926 15.1916 10V11.1111C15.1916 11.7407 15.4203 12.2685 15.8776 12.6944C16.3357 13.1204 16.8861 13.3333 17.5288 13.3333C18.1715 13.3333 18.7219 13.1204 19.18 12.6944C19.6373 12.2685 19.866 11.7407 19.866 11.1111V10C19.866 7.57407 18.9455 5.48593 17.1046 3.73556C15.2645 1.98593 13.0687 1.11111 10.5173 1.11111C7.96587 1.11111 5.76971 1.98593 3.92879 3.73556C2.08866 5.48593 1.16859 7.57407 1.16859 10C1.16859 12.4259 2.08866 14.5137 3.92879 16.2633C5.76971 18.0137 7.96587 18.8889 10.5173 18.8889H16.3602V20H10.5173ZM10.5173 13.3333C11.4911 13.3333 12.3189 13.0093 13.0005 12.3611C13.6822 11.713 14.0231 10.9259 14.0231 10C14.0231 9.07407 13.6822 8.28704 13.0005 7.63889C12.3189 6.99074 11.4911 6.66667 10.5173 6.66667C9.54347 6.66667 8.71572 6.99074 8.03404 7.63889C7.35236 8.28704 7.01153 9.07407 7.01153 10C7.01153 10.9259 7.35236 11.713 8.03404 12.3611C8.71572 13.0093 9.54347 13.3333 10.5173 13.3333Z" fill="#E2E2E2"/>
</svg>
