<svg width="41" height="32" viewBox="0 0 41 32" fill="none" xmlns="http://www.w3.org/2000/svg">
<path d="M24.58 1.01974C27.2839 1.01974 29.4964 3.12407 29.6692 5.78445L29.68 6.11971V14.3081L31.4998 12.9313L31.6244 12.8177C33.4148 11.2692 36.0571 11.2468 37.9442 12.6774L38.2214 12.9028L38.4864 13.1501C40.3823 15.0461 40.5226 18.0538 38.8857 19.9412L38.6622 20.1808L31.1419 28.7051C29.5974 30.5186 27.9126 31.4857 26.0869 31.6063L25.6936 31.6194H17.4396C11.9585 31.6194 7.4873 27.2963 7.24979 21.8733L7.23983 21.4191V10.1991C7.23983 7.38242 9.52317 5.09908 12.3398 5.09908C12.7178 5.09908 13.086 5.14006 13.4406 5.21832C13.8635 2.83196 15.9499 1.01905 18.4598 1.01905C19.6088 1.01905 20.6691 1.39899 21.5218 2.04022C22.3722 1.39845 23.4319 1.01974 24.58 1.01974ZM24.58 5.09974L24.3967 5.11625C23.9209 5.20248 23.56 5.61913 23.56 6.11971V14.2797L23.5464 14.5176L23.5062 14.7476C23.2948 15.6486 22.4857 16.3197 21.52 16.3197C20.5544 16.3197 19.7453 15.6486 19.5338 14.7476L19.4936 14.5176L19.48 14.2797V6.11971L19.4635 5.93643C19.3772 5.46058 18.9606 5.09974 18.46 5.09974C17.8968 5.09974 17.44 5.55651 17.44 6.11974V14.2797L17.4264 14.5177L17.3808 14.7701C17.1981 15.5103 16.6113 16.0915 15.8679 16.2659L15.6379 16.3061L15.4 16.3197L15.1621 16.3061L14.9096 16.2605C14.1694 16.0778 13.5882 15.491 13.4138 14.7476L13.3737 14.5176L13.36 14.2797V10.1997L13.3435 10.0164L13.2963 9.84366C13.1725 9.51125 12.8802 9.2608 12.5233 9.1962L12.34 9.1797L12.1568 9.1962L11.984 9.24344C11.7071 9.34676 11.4871 9.56675 11.3838 9.84366L11.3366 10.0164L11.32 10.1997V21.4197L11.3306 21.7794L11.3627 22.1474C11.6943 24.9459 13.9139 27.1654 16.7123 27.497L17.0803 27.5292L17.4401 27.5397H25.694L25.9525 27.5232L26.206 27.4745L26.4517 27.3937C26.5959 27.3359 26.8208 27.1697 27.1259 26.8948L27.5308 26.5129L28.2827 25.7442L28.8542 25.1306L35.6903 17.3888L35.7879 17.2695L35.8576 17.14C35.9347 16.9593 35.9487 16.7484 35.8954 16.5418L35.826 16.3503L35.7372 16.1974L35.6017 16.0349L35.4577 15.9123L35.2716 15.8038C35.016 15.6869 34.7374 15.6795 34.5066 15.7745L34.3691 15.8474L34.2479 15.9461L28.8718 20.0409L28.6851 20.1676L28.4706 20.2806C27.3091 20.8068 25.9225 20.1138 25.6488 18.8664L25.6121 18.6399L25.6004 18.4147V6.11938L25.5839 5.9361C25.4977 5.46026 25.0806 5.09974 24.58 5.09974ZM7.91392 0.910455C8.53748 1.84878 8.28276 3.11497 7.34444 3.73877C5.50851 4.95942 4.33056 6.98237 4.17486 9.18142C4.09546 10.3053 3.11989 11.1517 1.996 11.0723C0.872104 10.9926 0.0257227 10.0173 0.105137 8.89341C0.350177 5.43328 2.19665 2.26174 5.08558 0.34144C6.02391 -0.282399 7.29012 -0.0275812 7.91392 0.910455Z" fill="#E2E2E2"/>
</svg>
