<svg width="18" height="24" viewBox="0 0 18 24" fill="none" xmlns="http://www.w3.org/2000/svg">
<path d="M15.5455 10H2.45455C1.65122 10 1 10.6467 1 11.4444V21.5556C1 22.3533 1.65122 23 2.45455 23H15.5455C16.3488 23 17 22.3533 17 21.5556V11.4444C17 10.6467 16.3488 10 15.5455 10Z" stroke="#E2E2E2" stroke-width="1.5" stroke-linecap="round" stroke-linejoin="round"/>
<path d="M4 10V6.25C4 4.85761 4.52678 3.52226 5.46447 2.53769C6.40215 1.55312 7.67392 1 9 1C10.3261 1 11.5979 1.55312 12.5355 2.53769C13.4732 3.52226 14 4.85761 14 6.25V10" stroke="#E2E2E2" stroke-width="1.5" stroke-linecap="round" stroke-linejoin="round"/>
</svg>
