<svg width="18" height="18" viewBox="0 0 18 18" fill="none" xmlns="http://www.w3.org/2000/svg">
<path d="M0.5 8V0.5H8V8H0.5ZM2 6.5H6.5V2H2V6.5ZM0.5 17.5V10H8V17.5H0.5ZM2 16H6.5V11.5H2V16ZM10 8V0.5H17.5V8H10ZM11.5 6.5H16V2H11.5V6.5ZM15.625 17.5V15.625H17.5V17.5H15.625ZM10 11.875V10H11.875V11.875H10ZM11.875 13.75V11.875H13.75V13.75H11.875ZM10 15.625V13.75H11.875V15.625H10ZM11.875 17.5V15.625H13.75V17.5H11.875ZM13.75 15.625V13.75H15.625V15.625H13.75ZM13.75 11.875V10H15.625V11.875H13.75ZM15.625 13.75V11.875H17.5V13.75H15.625Z" fill="#E2E2E2"/>
</svg>
