<svg width="20" height="16" viewBox="0 0 20 16" fill="none" xmlns="http://www.w3.org/2000/svg">
<path d="M2 15.5C1.58333 15.5 1.22933 15.354 0.938 15.062C0.646 14.7707 0.5 14.4167 0.5 14V10.4C1.06667 10.3 1.54167 10.025 1.925 9.575C2.30833 9.125 2.5 8.6 2.5 8C2.5 7.4 2.30833 6.875 1.925 6.425C1.54167 5.975 1.06667 5.7 0.5 5.6V2C0.5 1.58333 0.646 1.22933 0.938 0.938C1.22933 0.646 1.58333 0.5 2 0.5H18C18.4167 0.5 18.7707 0.646 19.062 0.938C19.354 1.22933 19.5 1.58333 19.5 2V5.6C18.9333 5.7 18.4583 5.975 18.075 6.425C17.6917 6.875 17.5 7.4 17.5 8C17.5 8.6 17.6917 9.125 18.075 9.575C18.4583 10.025 18.9333 10.3 19.5 10.4V14C19.5 14.4167 19.354 14.7707 19.062 15.062C18.7707 15.354 18.4167 15.5 18 15.5H2ZM2 14H18V11.45C17.3833 11.0833 16.896 10.596 16.538 9.988C16.1793 9.37933 16 8.71667 16 8C16 7.28333 16.1793 6.62067 16.538 6.012C16.896 5.404 17.3833 4.91667 18 4.55V2H2V4.55C2.61667 4.91667 3.10433 5.404 3.463 6.012C3.821 6.62067 4 7.28333 4 8C4 8.71667 3.821 9.37933 3.463 9.988C3.10433 10.596 2.61667 11.0833 2 11.45V14ZM10 12.65C10.2167 12.65 10.396 12.5793 10.538 12.438C10.6793 12.296 10.75 12.1167 10.75 11.9C10.75 11.6833 10.6793 11.5043 10.538 11.363C10.396 11.221 10.2167 11.15 10 11.15C9.78333 11.15 9.60433 11.221 9.463 11.363C9.321 11.5043 9.25 11.6833 9.25 11.9C9.25 12.1167 9.321 12.296 9.463 12.438C9.60433 12.5793 9.78333 12.65 10 12.65ZM10 8.75C10.2167 8.75 10.396 8.679 10.538 8.537C10.6793 8.39567 10.75 8.21667 10.75 8C10.75 7.78333 10.6793 7.604 10.538 7.462C10.396 7.32067 10.2167 7.25 10 7.25C9.78333 7.25 9.60433 7.32067 9.463 7.462C9.321 7.604 9.25 7.78333 9.25 8C9.25 8.21667 9.321 8.39567 9.463 8.537C9.60433 8.679 9.78333 8.75 10 8.75ZM10 4.85C10.2167 4.85 10.396 4.779 10.538 4.637C10.6793 4.49567 10.75 4.31667 10.75 4.1C10.75 3.88333 10.6793 3.704 10.538 3.562C10.396 3.42067 10.2167 3.35 10 3.35C9.78333 3.35 9.60433 3.42067 9.463 3.562C9.321 3.704 9.25 3.88333 9.25 4.1C9.25 4.31667 9.321 4.49567 9.463 4.637C9.60433 4.779 9.78333 4.85 10 4.85Z" fill="#E2E2E2"/>
</svg>
