<?xml version="1.0" encoding="utf-8"?>
<!-- Generator: Adobe Illustrator 24.0.3, SVG Export Plug-In . SVG Version: 6.00 Build 0)  -->
<svg version="1.1" id="Layer_1" xmlns="http://www.w3.org/2000/svg" xmlns:xlink="http://www.w3.org/1999/xlink" x="0px" y="0px"
	 viewBox="0 0 2254 947" style="enable-background:new 0 0 2254 947;" xml:space="preserve">
<style type="text/css">
	.st0{fill-rule:evenodd;clip-rule:evenodd;fill:#262D3D;}
	.st1{fill-rule:evenodd;clip-rule:evenodd;fill:#204ECF;}
</style>
<path class="st0" d="M1384.1,389c-27.5-30.1-61.8-45.5-102.1-45.5c-38.8,0-77.3,27.1-101,53.9l0.1-50.1l-72.4-0.1l-0.8,410.9v5.4
	l72.8,0.1l0.3-128.5c22,24.7,56.8,39.2,95.5,39.3c42.6,0,78.4-15.2,106.5-45.1c28.3-30.1,42.7-72.6,42.8-121.3
	C1425.9,458.2,1411.9,418.2,1384.1,389z M1264.6,411.2c24.7,0,45.6,9.3,62.1,27.6c17,17.7,25.7,40.9,25.6,69
	c-0.1,28.3-8.5,53.7-25.9,72.2c-16.6,17.7-37.4,26.7-62.1,26.7c-24.3,0-44.6-8.9-62-26.9c-17.3-18.6-25.7-43.9-25.7-72.3
	c0.1-28.1,8.8-51.3,25.9-69c17.2-18.4,37.5-27.3,61.9-27.3H1264.6z"/>
<path class="st0" d="M1462.7,408.5l-0.3,173.4c-0.1,37.4,10.2,64.1,30.4,79.3c12.6,9.5,28.6,14.3,47.6,14.3
	c14.6,0,37.5-5.9,37.5-5.9l-6.5-63.2c0,0-16.7,5.4-24.8-0.4c-7.7-5.5-11.5-17.3-11.5-35l0.3-162.5l67.4,0.1l0.1-60.3l-67.4-0.1
	l0.2-86.6l-72.7-0.1l-0.2,86.6l-61-0.1L1462.7,408.5z"/>
<polygon class="st0" points="866,256.9 507.5,256.9 507.4,328.7 650.7,328.7 650.1,663.9 650.1,670.5 725.9,670.6 725.6,328.8 
	866,328.7 "/>
<path class="st1" d="M479.9,440.3L372,332.1c-1-1-126.5-126.7-126.5-126.7L191,259.7l79.7,79.9L95.8,513.9L331,749.5l53.8-53.6
	l-80.4-80.6L479.9,440.3z M255.6,555.7c-1.6,0.5-3.2,0.5-4.8,0s-2.9-1.2-5.8-4.1l-31.7-31.8c-2.8-2.8-3.6-4.2-4.1-5.8
	s-0.5-3.2,0-4.8s1.2-2.9,4.1-5.8l99.9-99.7c2.8-2.8,4.2-3.6,5.8-4c1.6-0.5,3.2-0.5,4.8,0s2.9,1.2,5.8,4.1l31.7,31.8
	c2.8,2.8,3.6,4.2,4,5.8c0.5,1.6,0.5,3.2,0,4.8s-1.2,2.9-4.1,5.8l-99.9,99.7C258.6,554.5,257.2,555.2,255.6,555.7z"/>
<path class="st0" d="M1034.2,390.9c-29.7-30.7-70.1-47.6-111.5-46.4c-41.9,0-78.8,14.7-109.7,43.8c-31.2,29.3-47.1,70-47.2,120.9
	s15.7,91.6,46.8,121c30.9,29.2,67.9,44.1,109.8,44.2c1.6,0.1,3.2,0.1,4.8,0.1c39.2,0,78-16.8,106.6-46c20.9-21.5,45.9-59.5,46-118.7
	S1055.1,412.5,1034.2,390.9 M1011.3,509.7c-0.1,29.5-8.8,53.9-26,72.5c-17.1,18.5-38.4,27.9-63.3,27.9c-24.4-0.1-45.5-9.5-62.6-28.2
	c-16.7-18.2-25.2-42.7-25.2-72.6s8.6-54.3,25.4-72.5c17.1-18.5,38.2-27.9,62.7-27.9c24.8,0,46.1,9.5,63.2,28.2
	C1002.7,455.7,1011.4,480.1,1011.3,509.7"/>
<path class="st0" d="M1685.5,459.7c0-18.5,9.7-59.2,63.3-59.2c19,0,29.8,6.4,38.9,14c8.8,7.3,13.2,25.3,13.2,40.2v7l-88.5,13.8
	c-70.1,10.7-110.3,48.4-110.5,103.6c-0.1,28.6,10.3,53.1,30.1,71.1c19.5,17.7,46.2,27.1,77.7,27.2c39.7,0,69.5-14.3,90.8-43.8
	c0.1,12.5,0.1,25.1,0.1,36.8l0,0h73.8l0.5-212c0.1-34.6-11.2-68.1-33.5-86.5c-22-18.1-50.8-27.4-92.5-27.5h-0.6
	c-31.8,0-65.5,8.4-88.2,28.1c-26.7,23.1-39.8,59.7-39.8,88L1685.5,459.7z M1719,613.8c-26.2-0.1-43.2-15-43.1-37.9
	c0.1-23.8,16.7-37.7,52.2-43.7l72.7-12.3v0.7c-0.2,54.9-33.7,93.2-81.5,93.2H1719z"/>
<polygon class="st0" points="1909.7,261.8 1909,668.2 1909,670 1974.3,670.2 1975,263.7 1975,261.9 "/>
<path class="st0" d="M2012.6,645.3c0-7,2.4-13,7.4-18s11-7.5,17.9-7.5c7,0,13.1,2.5,18,7.5c5,5,7.5,11,7.5,18c0,7.1-2.5,13-7.5,17.9
	c-5,5-11,7.4-18,7.4s-13-2.4-17.9-7.4C2015.1,658.3,2012.6,652.4,2012.6,645.3z M2016.8,645.3c0,5.9,2,11,6.1,15.2
	c4.1,4.1,9.1,6.2,15.1,6.2c5.9,0,10.9-2.1,15-6.2c4.1-4.2,6.2-9.2,6.2-15.2s-2.1-11-6.2-15.1c-4.1-4.2-9.1-6.3-15-6.3
	s-10.9,2.1-15,6.3C2018.9,634.3,2016.8,639.3,2016.8,645.3z M2044,659.2l-6.8-12.1h-4.6v12.1h-4.2v-27.8h11.3c5.6,0,8.9,3.3,8.9,7.9
	c0,3.9-2.9,6.8-6.8,7.6l6.9,12.3H2044z M2032.6,635.1v8.5h6.5c3.6,0,5.4-1.4,5.4-4.2c0-2.9-1.8-4.3-5.4-4.3H2032.6z"/>
</svg>
