<svg width="350" height="240" viewBox="0 0 350 240" fill="none" xmlns="http://www.w3.org/2000/svg">
<mask id="mask0" mask-type="alpha" maskUnits="userSpaceOnUse" x="0" y="0" width="350" height="240">
<rect width="350" height="240" fill="#F8F7FC"/>
</mask>
<g mask="url(#mask0)">
<rect x="-6" y="-6" width="361" height="250" fill="#CCCED8"/>
<rect width="355" height="240" fill="#F71963"/>
<path d="M216.884 113.048H211.046V133.651C211.046 133.839 210.973 134.019 210.844 134.152C210.715 134.284 210.54 134.359 210.358 134.359H205.856C205.674 134.359 205.499 134.284 205.37 134.152C205.241 134.019 205.169 133.839 205.168 133.651V113.048H199.296C199.208 113.051 199.12 113.037 199.037 113.005C198.954 112.973 198.878 112.924 198.814 112.861C198.75 112.798 198.699 112.723 198.663 112.639C198.628 112.556 198.609 112.466 198.608 112.375V108.73C198.609 108.639 198.628 108.549 198.663 108.466C198.699 108.382 198.75 108.307 198.814 108.244C198.878 108.181 198.954 108.132 199.037 108.1C199.12 108.068 199.208 108.053 199.296 108.057H216.882C217.065 108.048 217.243 108.114 217.378 108.24C217.513 108.366 217.595 108.543 217.604 108.73V112.376C217.594 112.563 217.513 112.739 217.378 112.864C217.243 112.99 217.066 113.056 216.884 113.048Z" fill="white"/>
<path d="M235.624 134.212C234.421 134.388 232.397 134.671 228.686 134.671C224.252 134.671 220.335 133.503 220.335 127.062V115.307C220.335 108.866 224.288 107.733 228.72 107.733C232.43 107.733 234.421 108.017 235.624 108.193C236.105 108.263 236.311 108.441 236.311 108.901V112.197C236.311 112.385 236.239 112.565 236.11 112.698C235.981 112.83 235.806 112.905 235.624 112.905H228.377C226.762 112.905 226.178 113.471 226.178 115.313V118.534H235.35C235.532 118.534 235.707 118.609 235.836 118.741C235.965 118.874 236.037 119.054 236.038 119.242V122.604C236.037 122.792 235.965 122.972 235.836 123.104C235.707 123.237 235.532 123.312 235.35 123.312H226.178V127.064C226.178 128.904 226.762 129.471 228.377 129.471H235.624C235.806 129.471 235.981 129.546 236.11 129.679C236.239 129.812 236.311 129.992 236.311 130.179V133.471C236.311 133.928 236.105 134.141 235.624 134.212Z" fill="white"/>
<path d="M261.552 134.353H256.088C255.642 134.353 255.435 134.206 255.195 133.822L250.457 126.076L246.165 133.652C245.924 134.076 245.684 134.36 245.309 134.36H240.223C239.879 134.36 239.708 134.147 239.708 133.9C239.715 133.813 239.738 133.729 239.776 133.652L247.221 120.867L239.699 108.728C239.661 108.663 239.638 108.59 239.631 108.515C239.643 108.385 239.703 108.264 239.799 108.179C239.895 108.093 240.019 108.049 240.146 108.055H245.678C246.057 108.055 246.332 108.409 246.535 108.728L250.931 115.877L255.186 108.728C255.358 108.409 255.667 108.055 256.042 108.055H261.128C261.255 108.049 261.379 108.093 261.475 108.179C261.571 108.264 261.631 108.385 261.643 108.515C261.636 108.59 261.613 108.663 261.575 108.728L254.09 120.942L261.896 133.652C261.957 133.76 261.992 133.881 261.999 134.006C262 134.211 261.827 134.353 261.552 134.353Z" fill="white"/>
<path d="M190.372 108.128C190.249 108.129 190.13 108.173 190.035 108.253C189.941 108.333 189.876 108.445 189.852 108.569L184.863 127.583C184.795 127.972 184.692 128.113 184.383 128.113C184.073 128.113 183.97 127.966 183.902 127.583L178.907 108.565C178.883 108.441 178.819 108.329 178.724 108.249C178.629 108.168 178.51 108.124 178.388 108.124H173.478C173.398 108.124 173.319 108.143 173.247 108.178C173.175 108.214 173.112 108.266 173.062 108.331C173.013 108.395 172.978 108.47 172.96 108.55C172.943 108.63 172.943 108.714 172.961 108.794C172.961 108.794 179.054 130.599 179.121 130.814C179.935 133.412 181.908 134.654 184.42 134.654C186.811 134.654 188.899 133.353 189.715 130.821C189.812 130.527 195.77 108.792 195.77 108.792C195.788 108.712 195.788 108.629 195.77 108.549C195.752 108.469 195.717 108.394 195.668 108.33C195.618 108.266 195.555 108.214 195.483 108.178C195.412 108.143 195.333 108.124 195.253 108.124L190.372 108.128Z" fill="white"/>
<path d="M160.118 89H106.749C102.611 89 99.9608 93.5304 101.897 97.2967L107.236 107.706H97.5578C96.9449 107.707 96.3425 107.87 95.8088 108.18C95.2752 108.491 94.8284 108.938 94.5117 109.478C94.1951 110.018 94.0194 110.634 94.0015 111.265C93.9837 111.895 94.1243 112.52 94.4099 113.079L111.581 146.546C111.883 147.135 112.336 147.627 112.89 147.971C113.444 148.314 114.079 148.496 114.726 148.496C115.373 148.496 116.007 148.314 116.561 147.971C117.115 147.627 117.568 147.135 117.871 146.546L122.534 137.506L128.385 148.912C130.444 152.924 136.022 152.931 138.088 148.924L164.838 97.0865C166.729 93.4202 164.149 89 160.118 89ZM136.145 111.148L124.61 133.505C124.409 133.896 124.108 134.223 123.739 134.452C123.37 134.68 122.948 134.801 122.518 134.801C122.088 134.801 121.665 134.68 121.297 134.452C120.928 134.223 120.627 133.896 120.425 133.505L109.002 111.242C108.811 110.871 108.717 110.455 108.727 110.035C108.738 109.615 108.854 109.205 109.064 108.845C109.274 108.485 109.571 108.187 109.925 107.979C110.28 107.772 110.681 107.662 111.088 107.661H134.11C134.508 107.661 134.898 107.767 135.245 107.969C135.591 108.17 135.88 108.461 136.085 108.812C136.29 109.163 136.403 109.562 136.414 109.972C136.424 110.381 136.331 110.786 136.145 111.148Z" fill="white"/>
</g>
</svg>
